<svg xmlns="http://www.w3.org/2000/svg" width="669.133" height="566.042" viewBox="0 0 669.133 566.042">
  <g id="Group_17916" data-name="Group 17916" transform="translate(-1387.66 -243.524)">
    <g id="Group_17897" data-name="Group 17897" transform="translate(1873.481 521.413)">
      <path id="Path_98796" data-name="Path 98796" d="M2949.384,1329.779a.881.881,0,0,1-.162-.054.845.845,0,0,1-.427-1.117c49.8-111.441,92.06-189.2,119-218.96.6-.661,1.03-1.138,1.2-1.386a.846.846,0,0,1,1.386.97,19.962,19.962,0,0,1-1.335,1.55c-26.825,29.629-68.984,107.233-118.711,218.515A.847.847,0,0,1,2949.384,1329.779Z" transform="translate(-2903.397 -1091.69)" fill="#c5c5ef"/>
      <path id="Path_98797" data-name="Path 98797" d="M3311.338,1074.291c-3.165,3.321-17.583,8.309-18.531,7.406s3.338-15.546,6.5-18.867a8.307,8.307,0,0,1,12.028,11.462Z" transform="translate(-3130.32 -1060.252)" fill="#c5c5ef"/>
      <path id="Path_98798" data-name="Path 98798" d="M3233.667,1110.583c.765,4.631-4.04,19.481-5.362,19.7s-10.645-12.3-11.409-16.931a8.5,8.5,0,0,1,16.771-2.769Z" transform="translate(-3080.25 -1088.764)" fill="#c5c5ef"/>
      <path id="Path_98799" data-name="Path 98799" d="M3268.934,1175.8c-4.684-.3-18.072-8.323-17.987-9.66s14.381-7.6,19.065-7.3a8.5,8.5,0,1,1-1.079,16.963Z" transform="translate(-3102.791 -1125.288)" fill="#c5c5ef"/>
      <path id="Path_98800" data-name="Path 98800" d="M3065.987,1314.89c2.114,7.59-3.217,33.241-5.383,33.844s-19.988-18.6-22.1-26.19a14.266,14.266,0,1,1,27.485-7.654Z" transform="translate(-2962.282 -1221.361)" fill="#c5c5ef"/>
      <path id="Path_98801" data-name="Path 98801" d="M3136.386,1413.805c-7.871.35-31.663-10.62-31.763-12.866s22.624-15.286,30.494-15.637a14.266,14.266,0,0,1,1.269,28.5Z" transform="translate(-3006.253 -1274.695)" fill="#c5c5ef"/>
      <path id="Path_98802" data-name="Path 98802" d="M2985.95,1394.827c4.568,8.491,5.114,40.547,2.69,41.85s-28.87-16.819-33.437-25.31a17.457,17.457,0,1,1,30.748-16.54Z" transform="translate(-2906.296 -1274.925)" fill="#c5c5ef"/>
      <path id="Path_98803" data-name="Path 98803" d="M3090.77,1521.824c-9.625-.565-37.2-16.913-37.043-19.66s29.463-15.759,39.087-15.194a17.457,17.457,0,1,1-2.044,34.854Z" transform="translate(-2972.674 -1341.769)" fill="#c5c5ef"/>
      <path id="Path_98804" data-name="Path 98804" d="M2934.679,1501.175c4.567,8.49,5.113,40.546,2.69,41.85s-28.871-16.819-33.438-25.31a17.457,17.457,0,0,1,30.749-16.54Z" transform="translate(-2872.469 -1345.089)" fill="#c5c5ef"/>
      <path id="Path_98805" data-name="Path 98805" d="M3039.5,1628.172c-9.624-.564-37.2-16.913-37.043-19.66s29.463-15.759,39.087-15.194a17.457,17.457,0,1,1-2.044,34.854Z" transform="translate(-2938.848 -1411.932)" fill="#c5c5ef"/>
      <path id="Path_98806" data-name="Path 98806" d="M2844.033,1640.507c7.457,6.111,20.172,35.542,18.427,37.671s-33.1-4.555-40.558-10.666a17.457,17.457,0,1,1,22.13-27Z" transform="translate(-2815.51 -1440.468)" fill="#c5c5ef"/>
      <path id="Path_98807" data-name="Path 98807" d="M2988.447,1733.85c-9.62.643-39.026-12.129-39.21-14.875s27.261-19.318,36.881-19.961a17.457,17.457,0,1,1,2.329,34.836Z" transform="translate(-2903.736 -1481.651)" fill="#c5c5ef"/>
      <path id="Path_98808" data-name="Path 98808" d="M3188,1176.027c.777,4.705-4.1,19.793-5.448,20.016s-10.815-12.5-11.592-17.2a8.635,8.635,0,1,1,17.039-2.813Z" transform="translate(-3049.94 -1131.865)" fill="#c5c5ef"/>
      <path id="Path_98809" data-name="Path 98809" d="M3221.918,1242.9c-4.759-.3-18.361-8.456-18.274-9.814s14.611-7.723,19.371-7.421a8.635,8.635,0,1,1-1.1,17.235Z" transform="translate(-3071.582 -1169.38)" fill="#c5c5ef"/>
      <path id="Path_98810" data-name="Path 98810" d="M3124.788,1232.033c1.648,6.572-3.5,28.5-5.38,28.975s-16.77-16.435-18.418-23.006a12.268,12.268,0,0,1,23.8-5.969Z" transform="translate(-3003.611 -1167.458)" fill="#c5c5ef"/>
      <path id="Path_98811" data-name="Path 98811" d="M3181.514,1326.367c-6.762-.43-26.086-12.013-25.963-13.944s20.759-10.972,27.52-10.542a12.268,12.268,0,1,1-1.557,24.486Z" transform="translate(-3039.853 -1219.658)" fill="#c5c5ef"/>
    </g>
    <g id="Group_17899" data-name="Group 17899" transform="translate(1468.659 688.025)">
      <path id="Path_98817" data-name="Path 98817" d="M1803.116,1597.518s-27.608-92.727-177.4-19.3C1625.719,1578.219,1753.309,1693.295,1803.116,1597.518Z" transform="translate(-1625.719 -1549.933)" fill="#bbb3e6"/>
      <path id="Path_98818" data-name="Path 98818" d="M1625.719,1633.068l177.4,19.3S1769.714,1750.887,1625.719,1633.068Z" transform="translate(-1625.719 -1604.782)" fill="#6f6bc4"/>
    </g>
    <g id="Group_17900" data-name="Group 17900" transform="translate(1411.36 600.811)">
      <path id="Path_98819" data-name="Path 98819" d="M1546.9,1468.917a.5.5,0,0,0,.1-.023.525.525,0,0,0,.33-.665c-24.128-71.83-45.608-122.4-60.482-142.395-.33-.444-.569-.765-.661-.928a.525.525,0,0,0-.914.517,12.347,12.347,0,0,0,.733,1.038c14.81,19.908,36.235,70.374,60.33,142.1A.525.525,0,0,0,1546.9,1468.917Z" transform="translate(-1475.717 -1314.082)" fill="#585899"/>
      <path id="Path_98820" data-name="Path 98820" d="M1458.412,1301.948c1.758,2.241,10.37,6.182,11.01,5.68s-1.136-9.805-2.894-12.046a5.157,5.157,0,0,0-8.116,6.366Z" transform="translate(-1457.313 -1293.607)" fill="#585899"/>
      <path id="Path_98821" data-name="Path 98821" d="M1509,1329.482c-.749,2.816,1.334,12.279,2.139,12.492s7.311-6.966,8.059-9.782a5.276,5.276,0,0,0-10.2-2.71Z" transform="translate(-1491.308 -1314.688)" fill="#585899"/>
      <path id="Path_98822" data-name="Path 98822" d="M1471.273,1366.513c2.912.095,11.663-4.066,11.69-4.9s-8.433-5.554-11.346-5.65a5.276,5.276,0,0,0-.344,10.547Z" transform="translate(-1463.156 -1334.747)" fill="#585899"/>
      <path id="Path_98823" data-name="Path 98823" d="M1585.6,1465.025c-1.759,4.564.007,20.732,1.309,21.234s13.46-10.3,15.218-14.866a8.856,8.856,0,1,0-16.527-6.368Z" transform="translate(-1541.461 -1402.957)" fill="#585899"/>
      <path id="Path_98824" data-name="Path 98824" d="M1516.281,1520c4.842.686,20.2-4.675,20.394-6.057s-13.069-10.795-17.911-11.48a8.856,8.856,0,1,0-2.483,17.537Z" transform="translate(-1491.193 -1431.342)" fill="#585899"/>
      <path id="Path_98825" data-name="Path 98825" d="M1617.187,1518.807c-3.329,4.974-5.577,24.75-4.157,25.7s18.842-8.672,22.171-13.647a10.837,10.837,0,1,0-18.014-12.053Z" transform="translate(-1559.762 -1439.009)" fill="#585899"/>
      <path id="Path_98826" data-name="Path 98826" d="M1525.51,1588.635c5.981.225,24-8.234,24.061-9.94s-17.267-11.494-23.248-11.719a10.837,10.837,0,1,0-.814,21.659Z" transform="translate(-1495.424 -1473.958)" fill="#585899"/>
      <path id="Path_98827" data-name="Path 98827" d="M1642.53,1587.578c-3.329,4.974-5.577,24.75-4.157,25.7s18.842-8.672,22.171-13.647a10.837,10.837,0,0,0-18.014-12.053Z" transform="translate(-1576.482 -1484.381)" fill="#585899"/>
      <path id="Path_98828" data-name="Path 98828" d="M1550.853,1657.406c5.981.225,24-8.233,24.062-9.941s-17.266-11.494-23.248-11.719a10.837,10.837,0,0,0-.814,21.66Z" transform="translate(-1512.145 -1519.33)" fill="#585899"/>
      <path id="Path_98829" data-name="Path 98829" d="M1678.348,1679.075c-4.972,3.332-14.583,20.76-13.632,22.18s20.725-.842,25.7-4.173a10.837,10.837,0,1,0-12.065-18.007Z" transform="translate(-1594.104 -1546.71)" fill="#585899"/>
      <path id="Path_98830" data-name="Path 98830" d="M1576.118,1725.765c5.906.971,24.838-5.169,25.115-6.854s-15.694-13.562-21.6-14.533a10.837,10.837,0,0,0-3.515,21.388Z" transform="translate(-1529.704 -1564.519)" fill="#585899"/>
      <path id="Path_98831" data-name="Path 98831" d="M1532.978,1372.627c-.76,2.862,1.357,12.476,2.173,12.693s7.428-7.078,8.188-9.939a5.361,5.361,0,0,0-10.361-2.754Z" transform="translate(-1507.126 -1343.112)" fill="#585899"/>
      <path id="Path_98832" data-name="Path 98832" d="M1495.791,1410.746c2.959.1,11.85-4.131,11.878-4.976s-8.568-5.643-11.528-5.74a5.361,5.361,0,0,0-.35,10.715Z" transform="translate(-1479.278 -1363.818)" fill="#585899"/>
      <path id="Path_98833" data-name="Path 98833" d="M1559.392,1410.561c-1.41,3.963.466,17.823,1.6,18.225s11.342-9.156,12.752-13.118a7.616,7.616,0,0,0-14.35-5.107Z" transform="translate(-1524.327 -1367.427)" fill="#585899"/>
      <path id="Path_98834" data-name="Path 98834" d="M1501.5,1463.789c4.2.137,16.835-5.869,16.874-7.069s-12.173-8.017-16.377-8.155a7.616,7.616,0,0,0-.5,15.224Z" transform="translate(-1481.606 -1395.838)" fill="#585899"/>
    </g>
    <g id="Group_17902" data-name="Group 17902" transform="translate(1758.871 688.025)">
      <path id="Path_98840" data-name="Path 98840" d="M2478.666,1597.518s27.608-92.727,177.4-19.3C2656.063,1578.219,2528.473,1693.295,2478.666,1597.518Z" transform="translate(-2478.666 -1549.933)" fill="#bbb3e6"/>
      <path id="Path_98841" data-name="Path 98841" d="M2656.063,1633.068l-177.4,19.3S2512.068,1750.887,2656.063,1633.068Z" transform="translate(-2478.666 -1604.782)" fill="#6f6bc4"/>
    </g>
    <ellipse id="Ellipse_497" data-name="Ellipse 497" cx="304.892" cy="33.125" rx="304.892" ry="33.125" transform="translate(1387.661 743.316)" fill="#bbb3e6"/>
    <g id="Group_17907" data-name="Group 17907" transform="translate(1510.438 377.626)">
      <path id="Path_98842" data-name="Path 98842" d="M2031.569,1667.542s3.951,23.121,4.105,23.4-1.444,2.758-1.444,2.758l-6.24,1.118-5.695-2.619s-3.287-18.638-3.883-21.539S2031.569,1667.542,2031.569,1667.542Z" transform="translate(-1926.567 -1317.126)" fill="#fb9391"/>
      <path id="Path_98843" data-name="Path 98843" d="M2027.914,1736.832s7.192,2.516,13.339-1.647c0,0,23.948,8.975,23.217,15.8,0,0,1.02,2.034-9.356,1.594s-26.5-.9-26.934-1.14S2025.717,1752.3,2027.914,1736.832Z" transform="translate(-1932.186 -1361.754)" fill="#060633"/>
      <path id="Path_98844" data-name="Path 98844" d="M1810.647,1667.539s-6.1,23.121-5.949,23.4-1.444,2.758-1.444,2.758l-6.24,1.118-5.694-2.619s3.106-19.02,2.51-21.92S1810.647,1667.539,1810.647,1667.539Z" transform="translate(-1776.754 -1317.124)" fill="#ebcdcb"/>
      <path id="Path_98845" data-name="Path 98845" d="M1789.374,1736.832s7.192,2.516,13.339-1.647c0,0,23.948,8.975,23.216,15.8,0,0,1.02,2.034-9.356,1.594s-26.5-.9-26.933-1.14S1787.176,1752.3,1789.374,1736.832Z" transform="translate(-1774.807 -1361.754)" fill="#4a454f"/>
      <path id="Path_98846" data-name="Path 98846" d="M1871.685,1234.849l12.51,158.231h-21.5s-22.731-125.035-25.956-125.583-26.258,125.583-26.258,125.583H1785.8l12.613-162.326Z" transform="translate(-1773.113 -1028.954)" fill="#585899"/>
      <path id="Path_98847" data-name="Path 98847" d="M1807.544,880.221s23.849,2.97,30.8,7.723,16.818,55.937,16.818,55.937l-8.043,27.054,1.1,34.723s-43.14,14.615-78.238,0l-1.828-34.723s-28.517-5.484-16.818-43.871,29.979-43.6,41.313-46.842S1807.544,880.221,1807.544,880.221Z" transform="translate(-1748.509 -796.737)" fill="#e59096"/>
      <g id="Group_17903" data-name="Group 17903" transform="translate(64.807 82.598)">
        <path id="Path_98848" data-name="Path 98848" d="M2036.073,910.243l-1.828-3.425-4.495-.131a59.18,59.18,0,0,1,1.261-9.775c1.593-7.329,4.337-12.3,8.156-14.76,2.3-1.483,6.173-2.776,11.585-.516,5.12,2.138,6.323,5.288,6.429,7.555.2,4.3-3.345,9.065-10.851,14.564A95.5,95.5,0,0,1,2036.073,910.243Zm8.446-23.789a4.811,4.811,0,0,0-2.093.746c-4,2.581-5.766,10.8-6.391,16.144,1.83-1.092,4.332-2.666,6.8-4.473,8.091-5.939,8.376-8.87,8.351-9.4-.048-1.02-1.739-1.875-2.743-2.294A7.931,7.931,0,0,0,2044.519,886.454Z" transform="translate(-1998.866 -880.414)" fill="#bbb3e6"/>
        <path id="Path_98849" data-name="Path 98849" d="M1983.892,916.793a95.386,95.386,0,0,1-11.449-4.031c-8.545-3.681-13.07-7.53-13.833-11.769-.4-2.233.066-5.572,4.578-8.8,4.77-3.412,8.836-3.019,11.407-2.087,4.274,1.548,8.059,5.775,11.25,12.563a59.209,59.209,0,0,1,3.415,9.245l-4.352,1.133,1.444-.376-1.444.377Zm-13.551-21.3a7.934,7.934,0,0,0-3.657,1.584c-.885.633-2.342,1.845-2.161,2.849.094.522,1.031,3.325,10.3,7.316,2.791,1.2,5.552,2.166,7.562,2.816-1.812-5.077-5.376-12.695-9.838-14.307A4.8,4.8,0,0,0,1970.341,895.5Z" transform="translate(-1951.855 -886.379)" fill="#bbb3e6"/>
        <rect id="Rectangle_5285" data-name="Rectangle 5285" width="64.081" height="61.251" transform="matrix(0.994, -0.113, 0.113, 0.994, 2.645, 40.098)" fill="#585899"/>
        <rect id="Rectangle_5286" data-name="Rectangle 5286" width="66.381" height="13.955" transform="translate(0 30.198) rotate(-6.46)" fill="#6f6bc4"/>
        <rect id="Rectangle_5287" data-name="Rectangle 5287" width="8.003" height="72.579" transform="translate(30.386 25.557) rotate(-6.461)" fill="#bbb3e6"/>
        <rect id="Rectangle_5288" data-name="Rectangle 5288" width="8.004" height="64.081" transform="translate(69.195 58.284) rotate(83.541)" fill="#bbb3e6"/>
        <path id="Path_98850" data-name="Path 98850" d="M2040.367,956.013s9.058,2.134,10.525,6.431,5.9,9.563,8.617,11.106l-.605-5.341,5.02.542s-4.879-5.6-6.341-9.785S2045.523,954.446,2040.367,956.013Z" transform="translate(-2005.87 -929.72)" fill="#bbb3e6"/>
        <path id="Path_98851" data-name="Path 98851" d="M2002.734,952.579s-8.024,4.117-8.942,10.426,5.319,18.14-2.977,20.81a13.55,13.55,0,0,1-7.309-.145l2.6-2.056-2.658-3.289s6.17-.3,6.46-2.545-4-10.355-1.566-15.75,11.6-9.035,11.6-9.035Z" transform="translate(-1968.316 -926.98)" fill="#bbb3e6"/>
      </g>
      <path id="Path_98852" data-name="Path 98852" d="M1946.2,1038.478s8.3-5.4,11.421-7.081,4.894-5.632,6.421-4.256-2.706,6.724-2.706,6.724,7.212-.159,9.421-.545,6.333-.071,6.741,1.523-10.331,2.706-10.331,2.706,9.134-.047,9.825,1.343-10.923,3.158-10.923,3.158,9.741-.526,10.541.1.031,1.674-3.373,2.7a33.785,33.785,0,0,1-7.143,1.192s6.873.143,7.691.448,1.724,1.322-3.478,2.306-16.5,1.38-22.354-.826Z" transform="translate(-1878.934 -894.431)" fill="#ebcdcb"/>
      <path id="Path_98853" data-name="Path 98853" d="M1812.59,1039.163a65.569,65.569,0,0,1-7.089-.331.348.348,0,0,1-.3-.388.343.343,0,0,1,.389-.3c.321.037,32.489,3.789,49.722-15.116l-3.394-18.5c-3.612.394-32.9,3.492-37.963,1.38a.347.347,0,0,1-.209-.376c.636-3.92,3.919-23.518,6.249-24.338a.347.347,0,1,1,.231.654c-1.278.451-3.914,12.257-5.748,23.512,5.847,1.932,37.363-1.523,37.686-1.557a.351.351,0,0,1,.38.282l3.483,18.989a.351.351,0,0,1-.084.3C1843.477,1037.164,1823.249,1039.163,1812.59,1039.163Z" transform="translate(-1785.91 -864.289)" fill="#4a454f"/>
      <g id="Group_17905" data-name="Group 17905" transform="translate(28.179 23.4)">
        <g id="Group_17904" data-name="Group 17904" transform="translate(1.037 2.222)">
          <path id="Path_98854" data-name="Path 98854" d="M1947.632,785.767s1.291-2.4,2.558-1.584c3.229,2.07.488,5.36-1.461,6.213Z" transform="translate(-1909.097 -759.838)" fill="#ebcdcb"/>
          <path id="Path_98855" data-name="Path 98855" d="M1875.643,730.492l-.017.005c-.013-.238-.025-.476-.047-.716a18.5,18.5,0,1,0-34.566,10.716c2.1,4.154,3.938,7.7,5.808,10.624a26.431,26.431,0,0,1,4.017,16.282l-.345,4.5c11.871,5,16.525-1.08,16.525-1.08l-.533-8.148a2.054,2.054,0,0,1,1.743-2.159l.02,0C1882.2,758.316,1876.22,736.817,1875.643,730.492Z" transform="translate(-1837.197 -712.959)" fill="#ebcdcb"/>
          <path id="Path_98856" data-name="Path 98856" d="M1887.507,794.957a1.722,1.722,0,1,0-1.559,1.871A1.722,1.722,0,0,0,1887.507,794.957Z" transform="translate(-1867.161 -766.024)" fill="#4a454f"/>
          <path id="Path_98857" data-name="Path 98857" d="M1931.487,781.909a1.722,1.722,0,1,0-1.559,1.871A1.722,1.722,0,0,0,1931.487,781.909Z" transform="translate(-1896.177 -757.416)" fill="#4a454f"/>
          <path id="Path_98858" data-name="Path 98858" d="M1873.267,783.36a1.009,1.009,0,0,1-1-1.443c.731-1.513,3.169-3.959,7.184-2.391a1.009,1.009,0,1,1-.735,1.88c-3.3-1.291-4.578,1.278-4.631,1.388A1.007,1.007,0,0,1,1873.267,783.36Z" transform="translate(-1859.309 -756.544)" fill="#4a454f"/>
          <path id="Path_98859" data-name="Path 98859" d="M1919.807,771.177a1.009,1.009,0,0,1-1-1.444c.73-1.513,3.171-3.96,7.184-2.391a1.009,1.009,0,0,1-.735,1.88c-3.3-1.29-4.579,1.278-4.631,1.388A1.01,1.01,0,0,1,1919.807,771.177Z" transform="translate(-1890.014 -748.505)" fill="#4a454f"/>
          <path id="Path_98860" data-name="Path 98860" d="M1834.375,766.306l6.134,12.01,3.289-.975.545-16.262Z" transform="translate(-1834.375 -744.706)" fill="#4a454f"/>
          <path id="Path_98861" data-name="Path 98861" d="M1849.839,804.66a2.747,2.747,0,0,0-1.553-1.169c-1.319-.4-3.614-.753-5.015.93-2.057,2.469,3.042,8.053,7.27,4.662C1850.542,809.083,1851.71,807.681,1849.839,804.66Z" transform="translate(-1839.934 -772.47)" fill="#ebcdcb"/>
          <path id="Path_98862" data-name="Path 98862" d="M1915.338,798.195a3.446,3.446,0,0,1-3.137.192.3.3,0,0,1,.269-.535,2.809,2.809,0,0,0,3.292-.781c.245-.267.365-.476.358-.622-.01-.205-.279-.447-.651-.781a8.813,8.813,0,0,1-2.988-5.2.3.3,0,1,1,.585-.13,8.17,8.17,0,0,0,2.8,4.886c.462.415.827.743.849,1.2a1.5,1.5,0,0,1-.515,1.055A3.991,3.991,0,0,1,1915.338,798.195Z" transform="translate(-1885.612 -763.853)" fill="#e59096"/>
          <path id="Path_98863" data-name="Path 98863" d="M1902.241,820.578s7.074.223,11.318-2.246c0,0-.611,5.48-4.636,6.279S1902.241,820.578,1902.241,820.578Z" transform="translate(-1879.15 -782.479)" fill="#fff"/>
          <path id="Path_98864" data-name="Path 98864" d="M1936.748,741.5s2.816,1.619,4.486,12.742c0,0-.236-12.547-1.747-13.793S1936.748,741.5,1936.748,741.5Z" transform="translate(-1901.916 -730.849)" fill="#4a454f"/>
        </g>
        <path id="Path_98865" data-name="Path 98865" d="M1838.654,708.045c.529-.542,1.505-.978,1.95-.365a1.317,1.317,0,0,1,.159.881,8.163,8.163,0,0,1-.621,2.575c3.108-3.643,8.291-4.774,13.079-4.7s9.545,1.117,14.327.883c1.9-.093,4.17-.227,5.284,1.31a3.254,3.254,0,0,1-.18,3.713,5.732,5.732,0,0,1-3.328,2.019,2.582,2.582,0,0,1,3.244,3.662c-.815,1.422-2.7,1.736-4.329,1.87a146.436,146.436,0,0,1-15.638.442l2.275,1.836a1.963,1.963,0,0,1,.651.74,1.466,1.466,0,0,1-.227,1.3,3.86,3.86,0,0,1-3.043,1.552,15.667,15.667,0,0,1-3.516-.38,27.928,27.928,0,0,0-5.155-.357,2.587,2.587,0,0,0-1.047.178,3.327,3.327,0,0,0-1.033.991c-1.835,2.207-4.744,3.147-7.491,3.981-.853.26-1.982.426-2.457-.33a1.975,1.975,0,0,1-.219-1,23.11,23.11,0,0,1,2.879-11.916,1.3,1.3,0,0,1-2.357.076c-.728-1.375,1-2.51,1.972-3.075.889-.517,1.734-.626,2.4-1.49C1837.266,711.083,1837.372,709.359,1838.654,708.045Z" transform="translate(-1831.328 -706.43)" fill="#4a454f"/>
      </g>
      <g id="Group_17906" data-name="Group 17906" transform="translate(11.384)">
        <path id="Path_98866" data-name="Path 98866" d="M1821.113,698.9l-6.77-28.437,22.877,16.479S1831.56,699.333,1821.113,698.9Z" transform="translate(-1803.327 -659.299)" fill="#7c9bf2"/>
        <path id="Path_98867" data-name="Path 98867" d="M1790.947,645.591l-6.667-5.284-1.48,4.2,6.889,2.377-7.722,4.132,3.666,3.314,4.86-6.282-.164,8.97,3.744-.532-1.09-7.674,7.356,1.671-.783-5.8-5.929,1.8,2.58-8.834-4.714.669Z" transform="translate(-1781.967 -637.655)" fill="#585899"/>
        <path id="Path_98868" data-name="Path 98868" d="M1836.989,718.823a3.427,3.427,0,1,1,3.875,2.911A3.427,3.427,0,0,1,1836.989,718.823Z" transform="translate(-1818.245 -688.626)" fill="#585899"/>
        <path id="Path_98869" data-name="Path 98869" d="M1823.774,701.526a3.413,3.413,0,0,1-1.222,3.119l-1.421-5.972A3.421,3.421,0,0,1,1823.774,701.526Z" transform="translate(-1807.806 -677.912)" fill="#585899"/>
        <path id="Path_98870" data-name="Path 98870" d="M1839.969,693.4a3.413,3.413,0,0,1-3.018-5.675l5.505,3.966A3.406,3.406,0,0,1,1839.969,693.4Z" transform="translate(-1817.655 -670.691)" fill="#585899"/>
      </g>
    </g>
    <g id="Group_17908" data-name="Group 17908" transform="translate(1637.608 634.72)">
      <rect id="Rectangle_5289" data-name="Rectangle 5289" width="129.276" height="110.87" transform="translate(3.055 23.024)" fill="#e59096"/>
      <rect id="Rectangle_5290" data-name="Rectangle 5290" width="133.916" height="25.261" transform="translate(0 4.68)" fill="#6f6bc4"/>
      <rect id="Rectangle_5291" data-name="Rectangle 5291" width="16.146" height="131.373" transform="translate(61.965 2.52)" fill="#585899"/>
      <rect id="Rectangle_5292" data-name="Rectangle 5292" width="14.487" height="129.276" transform="translate(132.33 69.287) rotate(90)" fill="#585899"/>
      <path id="Path_98871" data-name="Path 98871" d="M2328.112,1406.023s17.673,5.684,19.637,13.71,9.649,18.4,14.752,21.73v-9.731l9.94,2s-8.508-11.061-10.491-18.891S2338.8,1404.255,2328.112,1406.023Z" transform="translate(-2258.074 -1401.343)" fill="#585899"/>
      <path id="Path_98872" data-name="Path 98872" d="M2239.69,1396.684s-17.019,5.771-20.291,16.93,6.545,33.71-10.691,36.823a30.268,30.268,0,0,1-14.618-1.749l5.673-3.169-4.582-6.456s12.437.718,13.528-3.263-5.673-19.44.436-28.647,25.31-13.888,25.31-13.888Z" transform="translate(-2169.652 -1393.266)" fill="#585899"/>
    </g>
    <g id="Group_17909" data-name="Group 17909" transform="translate(1581.051 701.321)">
      <rect id="Rectangle_5293" data-name="Rectangle 5293" width="75.56" height="88.644" transform="translate(88.644 0) rotate(90)" fill="#fff"/>
      <rect id="Rectangle_5294" data-name="Rectangle 5294" width="1.469" height="89.077" transform="translate(89.077 35.262) rotate(90)" fill="#585899"/>
      <rect id="Rectangle_5295" data-name="Rectangle 5295" width="1.469" height="75.56" transform="translate(47.726 75.56) rotate(180)" fill="#585899"/>
      <path id="Path_98873" data-name="Path 98873" d="M2091.081,1692.778a1.046,1.046,0,0,1,1.046-1.045c.342,0,8.432.046,11.525,4.032a6.042,6.042,0,0,1,.95,5.458c-1.154,4.5-3.936,4.743-5.079,4.639-3.648-.333-7.912-5.4-8.439-13.012C2091.082,1692.826,2091.081,1692.8,2091.081,1692.778Zm11.684,6.546a3.6,3.6,0,0,0-.765-2.277c-1.742-2.245-6.165-3-8.716-3.179.783,6.089,4.192,9.708,6.429,9.912,1.676.153,2.482-1.589,2.864-3.076A5.539,5.539,0,0,0,2102.765,1699.323Z" transform="translate(-2045.135 -1656.781)" fill="#585899"/>
      <path id="Path_98874" data-name="Path 98874" d="M2044.869,1656.662c0-.984.475-2.274,2.378-3.487a6.5,6.5,0,0,1,5.943-.816c5.89,2.136,9.3,12.687,9.444,13.135a1.045,1.045,0,0,1-1.285,1.321c-2.622-.755-15.734-4.771-16.448-9.708A3.138,3.138,0,0,1,2044.869,1656.662Zm15.056,7.527c-1.21-3-3.878-8.572-7.448-9.866a4.456,4.456,0,0,0-4.105.614c-1.015.647-1.487,1.272-1.4,1.87C2047.313,1659.178,2054.2,1662.317,2059.925,1664.189Z" transform="translate(-2014.646 -1630.549)" fill="#585899"/>
      <path id="Path_98875" data-name="Path 98875" d="M2029.463,1664.165a1.056,1.056,0,0,1,.025-.228c1.089-4.9,7.39-4.163,11.559-3.676a16.709,16.709,0,0,0,3.508.212c1.8-.311,4.316-3.8,5.48-5.919a1.045,1.045,0,0,1,.563-.482c2.8-1.01,7.537-3.3,8.317-5.153a17.264,17.264,0,0,0,.665-4.422c.269-3.467.574-7.4,2.991-9.036a1.046,1.046,0,0,1,1.174,1.731c-1.584,1.074-1.859,4.619-2.08,7.467a18.124,18.124,0,0,1-.822,5.072c-1.264,3-7.448,5.521-9.168,6.172-.82,1.419-3.738,6.108-6.763,6.63a16.786,16.786,0,0,1-4.106-.2c-4.7-.549-8.647-.774-9.276,2.053a1.046,1.046,0,0,1-2.066-.226Z" transform="translate(-2004.482 -1619.538)" fill="#585899"/>
    </g>
    <g id="Group_17913" data-name="Group 17913" transform="translate(1755.408 383.848)">
      <g id="Group_17910" data-name="Group 17910" transform="translate(173.579 253.85)">
        <path id="Path_98876" data-name="Path 98876" d="M2978.645,1409.068s23.267-8.316,26.7-6.828c1.962.85,15.291,27.322,11.884,29.48s-16.305-16.97-23.7-15.985a46.222,46.222,0,0,0-13.521,4.157Z" transform="translate(-2978.645 -1402.048)" fill="#ebcdcb"/>
        <path id="Path_98877" data-name="Path 98877" d="M3028.83,1403.616c12.467,11.438,11.782,17.062,10.069,19.479,5,4.723,9.6,9.747,11.438,8.583,3.407-2.157-9.922-28.63-11.884-29.479C3037.2,1401.654,3033.284,1402.423,3028.83,1403.616Z" transform="translate(-3011.755 -1402.02)" fill="#4a454f"/>
      </g>
      <g id="Group_17911" data-name="Group 17911" transform="translate(36.232 364.449)">
        <path id="Path_98878" data-name="Path 98878" d="M2607.145,1728.24s2.861,25.3.536,28.4c-1.328,1.769-31.275,8.938-32.644,5.013s21.047-12.384,21.815-20.032a47.243,47.243,0,0,0-.979-14.544Z" transform="translate(-2574.977 -1727.077)" fill="#ebcdcb"/>
        <path id="Path_98879" data-name="Path 98879" d="M2608.589,1784.6c-14.54,9.829-20.063,7.823-22.1,5.538-5.97,3.915-12.146,7.35-11.408,9.466,1.369,3.925,31.316-3.244,32.644-5.014C2608.577,1793.453,2608.732,1789.347,2608.589,1784.6Z" transform="translate(-2575.007 -1765.026)" fill="#4a454f"/>
      </g>
      <path id="Path_98880" data-name="Path 98880" d="M2555.156,821.713c.145,5.1,6.281,9.356,4.6,14.175-.373,1.07-1.115,1.992-1.415,3.085-.659,2.4,1.137,4.986,3.47,5.863a10.024,10.024,0,0,0,7.277-.575c2.3-.961,4.391-2.364,6.66-3.4,5.088-2.315,10.811-2.665,16.3-3.744,5.564-1.095,11.094-2.977,16.75-2.582,6.524.455,12.4,3.871,18.513,6.207a57.857,57.857,0,0,0,19.528,3.8c3.478.065,7.078-.216,10.162-1.823,6.154-3.208,8.536-11.2,6.062-17.5a16.891,16.891,0,0,0-7.555-8.4c-2.989-1.667-6.8-2.226-9.056-5.02-3.157-3.911-1.22-9.758-2.467-14.627-1.048-4.1-4.5-7.463-8.308-9.094-3.559-1.523-7.984-1.735-10.657-4.868-2.906-3.406-1.94-8.117-2.463-12.2-.747-5.845-4.628-11.018-9.629-14.134a26.088,26.088,0,0,0-4.811-2.335c-11.223-4.118-25.849-1.279-29.788,11.556-1.206,3.932-1.118,8.329-3.269,11.835-2.337,3.81-7.041,6.065-8.338,10.342-1.63,5.375,2.978,11.147,1.458,16.554-.994,3.534-4.292,5.819-7.213,8.042S2555.051,818.044,2555.156,821.713Z" transform="translate(-2525.665 -719.832)" fill="#4a454f"/>
      <path id="Path_98881" data-name="Path 98881" d="M2830.551,862.652s39.185-16.169,43.69-54.913l-7.514-.153s-11.857,31.237-46.1,40.7Z" transform="translate(-2700.815 -755.991)" fill="#ebcdcb"/>
      <path id="Path_98882" data-name="Path 98882" d="M2518.822,795.956c-1.513-.451-26.956-13.647-30.56-67l-8.3,1.385s-1.686,71.474,24.894,82.736Z" transform="translate(-2476.044 -704.112)" fill="#ebcdcb"/>
      <path id="Path_98883" data-name="Path 98883" d="M2589.554,909.821s16.218,1.351,23.652,0a89.051,89.051,0,0,0,15.542-4.731l9.8,26.693s-25.341,7.433-24.5,11.826,1.858,40.208-7.264,43.249h-39.87s-13.516-2.7-13.516-19.6-2.365-23.651-6.42-26.692-21.286-14.191-21.286-14.191l15.88-24.666s17.57,7.433,24.327,7.772S2589.554,909.821,2589.554,909.821Z" transform="translate(-2506.23 -818.09)" fill="#c5c5ef"/>
      <path id="Path_98884" data-name="Path 98884" d="M2645.317,1151.961s9.348,19.034,12.5,30.3,6.307,59.918,9.911,64.423,54.512-4.956,54.512-4.956l4.055,12.164s-52.71,30.184-69.379,24.778-36.266-68.478-36.266-68.478-8.784,61.269-6.982,74.785,3.6,70.73,3.6,70.73h-18.021s-9.01-45.051-14.417-105.87,20.611-97.873,20.611-97.873Z" transform="translate(-2544.761 -983.193)" fill="#4a454f"/>
      <path id="Path_98885" data-name="Path 98885" d="M2622.97,842.8s-1.823-2.013-2.856-.924c-2.634,2.777,1.067,5.368,3.159,5.73Z" transform="translate(-2567.922 -778.399)" fill="#ebcdcb"/>
      <path id="Path_98886" data-name="Path 98886" d="M2640.628,756.833a18.459,18.459,0,0,1,19.339,23.3c-1.552,6.738-2.855,12.175-4.876,16.3a18.376,18.376,0,0,0-1.211,13.4l1.355,4.5c-9.813,6.922-15.265,2.317-15.265,2.317l-1.613-10.619h0c-11.694.374-13.382-21.055-14.333-27.321h.019c-.045-.234-.09-.467-.125-.7A18.463,18.463,0,0,1,2640.628,756.833Z" transform="translate(-2570.893 -722.462)" fill="#ebcdcb"/>
      <path id="Path_98887" data-name="Path 98887" d="M2644.117,773a78.668,78.668,0,0,1,7.234,6.418c2.458,2.368,5.012,4.89,5.978,8.164,2.619-2.7,4.006-6.347,5.094-9.948a17.367,17.367,0,0,0,.948-5.126,19.288,19.288,0,0,0-1.937-7.1c-1.226-2.943-2.536-6-4.978-8.054a15.325,15.325,0,0,0-5.65-2.761,25.972,25.972,0,0,0-14.577-.236,18.709,18.709,0,0,0-11.276,8.938c-2.939,5.624-2.337,12.362-1.66,18.672.236-2.7,1.624-5.139,2.98-7.482a15.812,15.812,0,0,1,3.123-4.228c2.275-1.96,3.03-1.723,6.985-5.38C2638.117,768.557,2640.89,770.574,2644.117,773Z" transform="translate(-2570.254 -720.25)" fill="#4a454f"/>
      <path id="Path_98888" data-name="Path 98888" d="M2715.417,838.195a2.742,2.742,0,0,1,1.226-1.5c1.183-.7,3.322-1.592,5.081-.3,2.583,1.9-1.025,8.529-5.931,6.252C2715.792,842.648,2714.325,841.567,2715.417,838.195Z" transform="translate(-2631.134 -774.562)" fill="#ebcdcb"/>
      <path id="Path_98889" data-name="Path 98889" d="M2639.138,840.489a1.612,1.612,0,1,1,1.957,1.168A1.61,1.61,0,0,1,2639.138,840.489Z" transform="translate(-2581.042 -776.375)" fill="#4a454f"/>
      <path id="Path_98890" data-name="Path 98890" d="M2684.082,838.733a1.611,1.611,0,1,1,1.956,1.168A1.612,1.612,0,0,1,2684.082,838.733Z" transform="translate(-2610.695 -775.216)" fill="#4a454f"/>
      <path id="Path_98891" data-name="Path 98891" d="M2654.585,874.641s1.265-1.13,2.105-.982a2.4,2.4,0,0,1,1.386,1.095,1.862,1.862,0,0,1,1.39-1.146,23.2,23.2,0,0,1,3.864.387s-2.177,4.491-5.226,4.034a4.04,4.04,0,0,1-3.463-3.249Z" transform="translate(-2591.266 -799.538)" fill="#ea6868"/>
      <path id="Path_98892" data-name="Path 98892" d="M2656.809,875.414c3.488.4,6.566-2.442,6.606-2.48a.227.227,0,0,0-.311-.331c-.2.19-5.008,4.61-9.26,1a.227.227,0,0,0-.293.346A6.025,6.025,0,0,0,2656.809,875.414Z" transform="translate(-2590.531 -798.846)" fill="#4a454f"/>
      <path id="Path_98893" data-name="Path 98893" d="M2687.555,829.672a.67.67,0,0,0,.18-1.247,8.041,8.041,0,0,0-5.348-.528.67.67,0,0,0-.486.813.686.686,0,0,0,.813.486,6.7,6.7,0,0,1,4.39.411A.668.668,0,0,0,2687.555,829.672Z" transform="translate(-2609.274 -769.235)" fill="#4a454f"/>
      <path id="Path_98894" data-name="Path 98894" d="M2638.453,829.737a.67.67,0,0,0-.046-1.259,7.952,7.952,0,0,0-5.356.439.67.67,0,0,0,.554,1.219,6.669,6.669,0,0,1,4.392-.383A.669.669,0,0,0,2638.453,829.737Z" transform="translate(-2576.8 -769.594)" fill="#4a454f"/>
      <path id="Path_98895" data-name="Path 98895" d="M2660.07,847.053a2.867,2.867,0,0,1-2.949-2.126.562.562,0,0,1,.065-.413,8.338,8.338,0,0,0,.738-5.338.564.564,0,0,1,1.1-.244,9.474,9.474,0,0,1-.742,5.932c.177.423.779,1.338,2.554.978a.564.564,0,0,1,.225,1.106A5.007,5.007,0,0,1,2660.07,847.053Z" transform="translate(-2592.93 -776.379)" fill="#ea6868"/>
      <g id="Group_17912" data-name="Group 17912" transform="translate(69.734 2.192)">
        <path id="Path_98896" data-name="Path 98896" d="M2692.267,726.74l2.888-31.085-21.715,20.859S2681.286,728.767,2692.267,726.74Z" transform="translate(-2673.441 -684.336)" fill="#6f6bc4"/>
        <path id="Path_98897" data-name="Path 98897" d="M2724.251,669.99l6.256-6.589,2.2,4.224-6.927,3.548,8.785,3.21-3.379,4.055-6.082-5.913,1.521,9.461h-4.039v-8.278l-7.526,2.872-.044-6.25,6.54,1.013-4.054-8.954h5.084Z" transform="translate(-2700.868 -662.387)" fill="#e59096"/>
        <path id="Path_98898" data-name="Path 98898" d="M2707.451,751.119a3.66,3.66,0,1,0-3.66,3.66A3.66,3.66,0,0,0,2707.451,751.119Z" transform="translate(-2691.05 -718.513)" fill="#e59096"/>
        <path id="Path_98899" data-name="Path 98899" d="M2727.367,729.916a3.644,3.644,0,0,0,1.76,3.115l.606-6.528A3.653,3.653,0,0,0,2727.367,729.916Z" transform="translate(-2709.019 -704.688)" fill="#e59096"/>
        <path id="Path_98900" data-name="Path 98900" d="M2701.649,724.019a3.645,3.645,0,0,0,2.339-6.454l-5.226,5.02A3.642,3.642,0,0,0,2701.649,724.019Z" transform="translate(-2690.146 -698.791)" fill="#e59096"/>
      </g>
      <path id="Path_98901" data-name="Path 98901" d="M2940.763,757.145s-4.095-7.053-5.009-9.93-3.937-4.985-2.544-6.046,5.2,3.329,5.2,3.329,1.008-6.058,1.035-7.967.943-5.31,2.341-5.4.628,9.071.628,9.071,1.406-7.649,2.679-8.007.914,9.637.914,9.637,1.1-8.232,1.751-8.8,1.405.239,1.724,3.248a28.8,28.8,0,0,1-.134,6.165,65.115,65.115,0,0,1,1.592-6.363c.384-.637,1.379-1.233,1.378,3.275s-1.593,14.251-4.364,18.8Z" transform="translate(-2774.852 -705.549)" fill="#ebcdcb"/>
      <path id="Path_98902" data-name="Path 98902" d="M2480.038,681.958s4.095-7.053,5.009-9.93,3.937-4.985,2.544-6.046-5.2,3.328-5.2,3.328-1.009-6.058-1.036-7.967-.943-5.31-2.341-5.4-.628,9.071-.628,9.071-1.406-7.649-2.679-8.007-.913,9.638-.913,9.638-1.1-8.232-1.751-8.8-1.405.239-1.723,3.248a28.759,28.759,0,0,0,.133,6.164,65.208,65.208,0,0,0-1.592-6.363c-.385-.636-1.379-1.232-1.378,3.275s1.593,14.251,4.364,18.8Z" transform="translate(-2468.488 -655.944)" fill="#ebcdcb"/>
      <path id="Path_98903" data-name="Path 98903" d="M2703.248,1042.677a22.733,22.733,0,0,1-10.571-2.8.345.345,0,0,1,.318-.612c11.659,6.079,19.319.1,19.4.036a.346.346,0,0,1,.432.54A16.4,16.4,0,0,1,2703.248,1042.677Z" transform="translate(-2616.275 -908.817)" fill="#585899"/>
    </g>
    <path id="Path_98904" data-name="Path 98904" d="M2018.777,554.223l2.77-5.562c8.348,4.157,10.9,3.362,11.49,3.019,1.351-.791,1.532-4.487,1.677-7.457.2-4.122.41-8.385,3.094-11.156a8.314,8.314,0,0,1,6.7-2.668c6.29.434,11.829,7.768,12.439,8.6l-5.014,3.668,2.507-1.834-2.5,1.838c-1.4-1.9-5.169-5.9-7.859-6.077a2.119,2.119,0,0,0-1.8.791c-1.055,1.089-1.219,4.443-1.351,7.139-.23,4.7-.491,10.023-4.742,12.514C2032.447,559.226,2027.08,558.357,2018.777,554.223Z" transform="translate(-416.381 -189.253)" fill="#fff"/>
    <path id="Path_98905" data-name="Path 98905" d="M2577.224,499.3l-5.584-2.725c4.09-8.381,3.275-10.932,2.927-11.514-.8-1.345-4.5-1.5-7.47-1.618-4.124-.169-8.387-.343-11.18-3a8.314,8.314,0,0,1-2.721-6.675c.383-6.294,7.674-11.891,8.5-12.508l3.708,4.985-1.854-2.493,1.857,2.49c-1.893,1.418-5.854,5.216-6.014,7.908a2.118,2.118,0,0,0,.806,1.795c1.1,1.047,4.453,1.183,7.149,1.294,4.7.193,10.027.411,12.552,4.643C2582.118,485.59,2581.292,490.964,2577.224,499.3Z" transform="translate(-768.955 -143.649)" fill="#fff"/>
    <path id="Path_98906" data-name="Path 98906" d="M2752.626,458.432l2.364-5.746c8.625,3.548,11.118,2.572,11.677,2.188,1.291-.886,1.206-4.585,1.139-7.558-.095-4.126-.192-8.393,2.285-11.349a8.317,8.317,0,0,1,6.489-3.141c6.3-.018,12.354,6.9,13.024,7.69l-4.739,4.018,2.37-2.009-2.366,2.013c-1.536-1.8-5.578-5.511-8.274-5.5a2.121,2.121,0,0,0-1.74.918c-.974,1.163-.9,4.52-.836,7.217.107,4.7.229,10.033-3.833,12.822C2766.619,462.443,2761.2,461.962,2752.626,458.432Z" transform="translate(-900.541 -124.893)" fill="#e59096"/>
    <path id="Path_98907" data-name="Path 98907" d="M3039.474,894.881l3.848,4.878c-7.322,5.776-7.694,8.428-7.633,9.1.139,1.56,3.4,3.3,6.028,4.7,3.642,1.942,7.408,3.949,8.769,7.559a8.313,8.313,0,0,1-.445,7.194c-3.077,5.5-12.074,7.383-13.09,7.579l-1.177-6.1.589,3.05-.594-3.049c2.322-.456,7.539-2.158,8.85-4.514a2.119,2.119,0,0,0,.053-1.967c-.535-1.419-3.5-3-5.88-4.268-4.15-2.213-8.855-4.721-9.293-9.629C3029.116,905.108,3032.192,900.626,3039.474,894.881Z" transform="translate(-1083.188 -429.735)" fill="#6f6bc4"/>
    <path id="Path_98908" data-name="Path 98908" d="M1639.061,458.724l6.2.472c-.709,9.3.99,11.368,1.529,11.781,1.242.954,4.734-.27,7.54-1.254,3.9-1.365,7.922-2.776,11.5-1.334a8.315,8.315,0,0,1,4.992,5.2c1.966,5.99-2.744,13.883-3.288,14.763l-5.286-3.264,2.643,1.632-2.646-1.628c1.237-2.016,3.517-7.008,2.672-9.569a2.117,2.117,0,0,0-1.411-1.371c-1.407-.568-4.576.543-7.122,1.436-4.439,1.555-9.471,3.318-13.379.317C1639.572,473.272,1638.356,467.973,1639.061,458.724Z" transform="translate(-165.735 -141.979)" fill="#6f6bc4"/>
    <path id="Path_98909" data-name="Path 98909" d="M2290.275,403.341l5.643,2.6c-3.9,8.47-3.031,11-2.669,11.576.832,1.327,4.532,1.4,7.5,1.451,4.126.077,8.393.157,11.245,2.754a8.318,8.318,0,0,1,2.869,6.613c-.244,6.3-7.407,12.059-8.224,12.694l-3.818-4.9,1.909,2.45-1.913-2.448c1.862-1.46,5.737-5.345,5.837-8.04a2.119,2.119,0,0,0-.845-1.776c-1.122-1.022-4.479-1.084-7.176-1.134-4.7-.088-10.033-.187-12.652-4.362C2285.688,417.156,2286.393,411.766,2290.275,403.341Z" transform="translate(-593.129 -105.44)" fill="#6f6bc4"/>
    <path id="Path_98910" data-name="Path 98910" d="M1470.712,916.089l5.4-3.08c4.622,8.1,7.189,8.862,7.866,8.9,1.563.1,3.771-2.875,5.544-5.262,2.462-3.313,5.007-6.738,8.779-7.547a8.316,8.316,0,0,1,7.048,1.51c4.985,3.861,5.5,13.038,5.546,14.071l-6.207.258,3.1-.129-3.1.133c-.105-2.363-1.013-7.775-3.147-9.423a2.12,2.12,0,0,0-1.937-.345c-1.483.318-3.486,3.013-5.1,5.179-2.806,3.775-5.986,8.054-10.905,7.758C1479.285,927.854,1475.309,924.146,1470.712,916.089Z" transform="translate(-54.793 -438.974)" fill="#e59096"/>
    <path id="Path_98911" data-name="Path 98911" d="M1986.838,279.907l-1.174-6.1c9.158-1.762,10.708-3.945,10.964-4.573.594-1.449-1.505-4.5-3.192-6.945-2.341-3.4-4.762-6.913-4.311-10.744a8.313,8.313,0,0,1,3.7-6.184c5.263-3.473,14.116-1,15.108-.711l-1.759,5.958.88-2.979-.875,2.98c-2.271-.662-7.687-1.55-9.935-.061a2.118,2.118,0,0,0-.951,1.722c-.177,1.507,1.727,4.272,3.258,6.494,2.668,3.874,5.693,8.264,3.825,12.825C2000.739,275.588,1995.946,278.154,1986.838,279.907Z" transform="translate(-394.535 0)" fill="#e59096"/>
    <path id="Path_98912" data-name="Path 98912" d="M2229.544,790.5l-1.173-6.1c9.158-1.762,10.708-3.946,10.964-4.573.594-1.449-1.5-4.5-3.191-6.945-2.342-3.4-4.762-6.914-4.312-10.745a8.314,8.314,0,0,1,3.7-6.184c5.263-3.472,14.116-1,15.107-.71l-1.759,5.958.879-2.979-.875,2.981c-2.271-.662-7.687-1.55-9.935-.061a2.119,2.119,0,0,0-.952,1.722c-.178,1.507,1.728,4.271,3.259,6.494,2.668,3.874,5.692,8.264,3.824,12.825C2243.446,786.186,2238.653,788.752,2229.544,790.5Z" transform="translate(-554.662 -336.869)" fill="#e59096"/>
    <g id="Group_17914" data-name="Group 17914" transform="translate(1655.092 537.406)">
      <path id="Path_98913" data-name="Path 98913" d="M2313,1358.479c-8.616.572-14.776-7.385-10.563-13.9,1.428-2.209,3.806-3.714,7.667-3.6,13.511.41,24.636,6.024,33.711,13.6l-2.919,7.083S2330.271,1357.333,2313,1358.479Z" transform="translate(-2257.725 -1261.452)" fill="#ebcdcb"/>
      <path id="Path_98914" data-name="Path 98914" d="M2416.741,1382.392s8.187,4.1,10.406,2.592,6.015-11.738,3.187-12.311-5.676,3.63-7.767,3.292a7.987,7.987,0,0,1-3.319-1.271S2416.642,1380.658,2416.741,1382.392Z" transform="translate(-2334.03 -1282.332)" fill="#4a454f"/>
      <path id="Path_98915" data-name="Path 98915" d="M2365.79,1163.281s1.01-1.686,1.9-1.059c2.261,1.6.177,3.881-1.257,4.433Z" transform="translate(-2300.417 -1143.428)" fill="#ebcdcb"/>
      <path id="Path_98916" data-name="Path 98916" d="M2304,1135.642c0-9.511-7.148-17.221-15.966-17.221s-15.966,7.71-15.966,17.221,7.148,17.221,15.966,17.221S2304,1145.152,2304,1135.642Z" transform="translate(-2238.586 -1114.623)" fill="#ebcdcb"/>
      <path id="Path_98917" data-name="Path 98917" d="M2273.622,1175.849l-6.178-1.623c-7.334,13.27-20.22,11.834-24.29,10.994a.24.24,0,0,1-.182-.3h0a6.477,6.477,0,0,1,4.09-4.289,25.656,25.656,0,0,0,4.929-2.372c9.7-5.951,4.022-19.432,4.022-19.432s-33.885,1.826-29.444,12.122a20.606,20.606,0,0,0,4.52,6.79,6.378,6.378,0,0,1,1.677,6.247h0a2.709,2.709,0,0,1-2.291,2c-19.606,2.3-25.917-7.967-25.917-7.967l-4.733,1.713c2.3,14.02,16.905,20.872,16.905,20.872-2.84,8.25-3.516,19.475-3.516,19.475l41.249,1.488-.947-20.421C2271.366,1196,2273.622,1175.849,2273.622,1175.849Z" transform="translate(-2190.92 -1141.28)" fill="#ebcdcb"/>
      <path id="Path_98918" data-name="Path 98918" d="M2305.76,1177.793a1.655,1.655,0,1,0-1.577,1.728A1.654,1.654,0,0,0,2305.76,1177.793Z" transform="translate(-2258.63 -1152.752)" fill="#4a454f"/>
      <path id="Path_98919" data-name="Path 98919" d="M2351.47,1169.006a1.655,1.655,0,1,0-1.578,1.728A1.654,1.654,0,0,0,2351.47,1169.006Z" transform="translate(-2288.788 -1146.955)" fill="#4a454f"/>
      <path id="Path_98920" data-name="Path 98920" d="M2271.347,1184.257a2.6,2.6,0,0,0-1.418-1.172c-1.23-.432-3.384-.867-4.781.664-2.051,2.247,2.53,7.745,6.674,4.72C2271.821,1188.469,2272.986,1187.193,2271.347,1184.257Z" transform="translate(-2233.684 -1157.017)" fill="#ebcdcb"/>
      <path id="Path_98921" data-name="Path 98921" d="M2333.112,1183.52a.376.376,0,1,1,0-.751,1.081,1.081,0,0,0,.9-.472.558.558,0,0,0,.1-.5,5.921,5.921,0,0,0-1.81-1.1.376.376,0,1,1,.307-.686c.578.26,1.95.924,2.193,1.491a1.3,1.3,0,0,1-.16,1.214A1.841,1.841,0,0,1,2333.112,1183.52Z" transform="translate(-2278.172 -1155.231)" fill="#e59096"/>
      <path id="Path_98922" data-name="Path 98922" d="M2273.682,1326.058s8.787,24.408-13.819,28.195-37.935-6.079-26.754-28.195C2233.109,1326.058,2266.289,1336.272,2273.682,1326.058Z" transform="translate(-2210.412 -1251.612)" fill="#4a454f"/>
      <path id="Path_98923" data-name="Path 98923" d="M2266.9,1369.856c-8.616.572-14.776-7.385-10.563-13.9,1.428-2.209,3.806-3.714,7.667-3.6,13.511.41,24.9,6.481,33.969,14.059l-3.561,6.9S2284.164,1368.71,2266.9,1369.856Z" transform="translate(-2227.306 -1268.958)" fill="#ebcdcb"/>
      <path id="Path_98924" data-name="Path 98924" d="M2366.393,1392.124s8.9,4.454,11.316,2.819,6.541-12.765,3.465-13.388-6.172,3.947-8.447,3.58a8.682,8.682,0,0,1-3.609-1.382S2366.286,1390.239,2366.393,1392.124Z" transform="translate(-2300.813 -1288.188)" fill="#4a454f"/>
      <path id="Path_98925" data-name="Path 98925" d="M2397.616,1183.822s-.968-2.587,1.6-5.32c1.087-1.157.747-4.133,1.758-4.206s.979,3.575.979,3.575,1.775-1.985,2.447-2.795,2.117-2.553,2.795-2.209-1.938,4.237-1.938,4.237,3.58-3.7,4.237-3.363c1.082.554-2.048,4.6-2.048,4.6s3.354-3.224,3.852-3.291.486.992-.406,2.368a12.5,12.5,0,0,1-2.164,2.438s2.171-1.275,2.569-1.442,1.6-.623.045,1.307a27.787,27.787,0,0,1-8.631,6.14Z" transform="translate(-2321.296 -1150.514)" fill="#ebcdcb"/>
      <path id="Path_98926" data-name="Path 98926" d="M2188.159,1198.926s.968-2.587-1.6-5.321c-1.088-1.157-.747-4.133-1.758-4.206s-.979,3.575-.979,3.575-1.775-1.985-2.447-2.795-2.116-2.553-2.8-2.209,1.939,4.237,1.939,4.237-3.58-3.7-4.238-3.363c-1.082.554,2.047,4.6,2.047,4.6s-3.354-3.224-3.852-3.291-.485.992.407,2.368a12.48,12.48,0,0,0,2.164,2.438s-2.172-1.275-2.57-1.443-1.6-.623-.045,1.307a27.794,27.794,0,0,0,8.631,6.14Z" transform="translate(-2173.655 -1160.479)" fill="#ebcdcb"/>
      <path id="Path_98927" data-name="Path 98927" d="M2296.909,1169.641a.564.564,0,0,1-.361-1,7.771,7.771,0,0,1,4.047-1.5.564.564,0,0,1,.066,1.125h0a6.721,6.721,0,0,0-3.392,1.238A.561.561,0,0,1,2296.909,1169.641Z" transform="translate(-2254.6 -1146.77)" fill="#4a454f"/>
      <path id="Path_98928" data-name="Path 98928" d="M2349.483,1161.161a.567.567,0,0,1-.253-.06,6.669,6.669,0,0,0-3.583-.437.563.563,0,1,1-.192-1.11,7.773,7.773,0,0,1,4.281.54.564.564,0,0,1-.254,1.067Z" transform="translate(-2286.693 -1141.7)" fill="#4a454f"/>
      <path id="Path_98929" data-name="Path 98929" d="M2291.809,1109.257a5.921,5.921,0,0,1,3.658-2,1.584,1.584,0,0,1-.333,1.679c-.379.459-.881.792-1.233,1.275a23.712,23.712,0,0,1,12.422-1.313,4.7,4.7,0,0,1,1.823.593,2.069,2.069,0,0,1,.992,1.652c.009,1.1-1.021,1.849-1.97,2.267a12.356,12.356,0,0,1-6.017,1c.957.317,2.1.867,2.153,1.936.053.985-.891,1.691-1.775,1.971-2.447.772-5.055-.128-7.448-1.073s-5.561-.989-7.576-1.4c.266-1.238,2.155-2.658,2.614-3.288A33.707,33.707,0,0,1,2291.809,1109.257Z" transform="translate(-2248.107 -1107.258)" fill="#4a454f"/>
      <path id="Path_98930" data-name="Path 98930" d="M2328.437,1192.492s-6.085,2.661-11.157,2.458a7.25,7.25,0,0,0,6.724,2.231A5.509,5.509,0,0,0,2328.437,1192.492Z" transform="translate(-2268.412 -1163.491)" fill="#fff"/>
      <path id="Path_98931" data-name="Path 98931" d="M2250.5,1236.193s8.878,3.155,13.814-.361c0,0,8.985.361,10.084-.716l2.836,15.618-3.353,1.292,1.483,18.541s-2.991,2.462-9.13,2.678-34.584-4.005-34.584-4.005l3.425-18.912-5.706-2.933s6.007-6.947,7.784-12.279C2237.151,1235.116,2248.175,1236.462,2250.5,1236.193Z" transform="translate(-2210.412 -1191.613)" fill="#c5c5ef"/>
    </g>
    <g id="Group_17915" data-name="Group 17915" transform="translate(1681.747 514.094)">
      <path id="Path_98932" data-name="Path 98932" d="M2281.058,1089.115l-1.5-24.369,16.463,16.838S2289.592,1090.968,2281.058,1089.115Z" transform="translate(-2270.182 -1055.898)" fill="#e59096"/>
      <path id="Path_98933" data-name="Path 98933" d="M2260.161,1044.644l-4.729-5.3-1.82,3.247,5.327,2.943-6.946,2.294,2.542,3.252,4.9-4.473-1.42,7.358,3.156.1.2-6.471,5.813,2.429.187-4.885-5.137.632,3.388-6.9-3.974-.125Z" transform="translate(-2251.994 -1038.742)" fill="#6f6bc4"/>
      <path id="Path_98934" data-name="Path 98934" d="M2290.231,1108.655a2.863,2.863,0,1,1,2.772,2.951A2.863,2.863,0,0,1,2290.231,1108.655Z" transform="translate(-2277.22 -1083.038)" fill="#6f6bc4"/>
      <path id="Path_98935" data-name="Path 98935" d="M2282.871,1091.657a2.853,2.853,0,0,1-1.453,2.391l-.314-5.118A2.857,2.857,0,0,1,2282.871,1091.657Z" transform="translate(-2271.199 -1071.854)" fill="#6f6bc4"/>
      <path id="Path_98936" data-name="Path 98936" d="M2296.644,1087.542a2.85,2.85,0,0,1-1.67-5.1l3.962,4.052A2.848,2.848,0,0,1,2296.644,1087.542Z" transform="translate(-2279.623 -1067.572)" fill="#6f6bc4"/>
    </g>
  </g>
</svg>
